<svg aria-hidden="true" style="position:absolute;width:0;height:0;overflow:hidden" xmlns="http://www.w3.org/2000/svg"><defs><symbol id="burger" viewBox="0 0 48 32"><path d="M0 5.333V0h48v5.333H0zm0 13.334h48v-5.333H0v5.333zM0 32h48v-5.333H0V32z"/></symbol><symbol id="send" viewBox="0 0 32 32"><path d="M32 0 0 18l10.227 3.788L26 7 14.002 23.186l.01.004-.012-.004V32l5.735-6.691L27 28l5-28z"/></symbol><symbol id="buy" viewBox="0 0 19 32"><path d="M3.2 3.2 16 16 3.2 28.8"/></symbol><symbol id="arrow" viewBox="0 0 32 32"><path d="m19.414 27.414 10-10a2 2 0 0 0 0-2.828l-10-10a2 2 0 1 0-2.828 2.828L23.172 14H4a2 2 0 1 0 0 4h19.172l-6.586 6.586c-.39.39-.586.902-.586 1.414s.195 1.024.586 1.414a2 2 0 0 0 2.828 0z"/></symbol></defs></svg>