<svg aria-hidden="true" style="position:absolute;width:0;height:0;overflow:hidden" xmlns="http://www.w3.org/2000/svg"><defs>
<symbol id="github" viewBox="0 0 32 32"><path d="M16 0C7.21 0 0 7.21 0 16c0 7.5 5.26 14.31 12.25 16v-5.3a3.9 3.9 0 0 1-2.03-.04 3.93 3.93 0 0 1-2.29-1.87c-.36-.62-1-1.28-1.68-1.23l-.16-1.87c1.45-.13 2.7.88 3.45 2.14.34.56.72.88 1.2 1.03.48.14.99.07 1.58-.14.15-1.19.7-1.63 1.1-2.25-4.16-.63-5.83-2.84-6.49-4.58a7.34 7.34 0 0 1 1.14-7.04c.03-.04.09-.13.07-.2-.71-2.14.15-3.9.18-4.1.82.25.95-.24 3.56 1.34l.44.27c.2.11.13.05.32.04 1.09-.3 2.23-.46 3.36-.48 1.14.02 2.27.18 3.4.49l.15.01c-.01 0 .04 0 .13-.06 3.24-1.97 3.13-1.32 4-1.6.03.18.88 1.98.18 4.1-.1.28 2.82 2.95 1.2 7.23-.66 1.74-2.32 3.95-6.48 4.57.53.82 1.17 1.25 1.17 2.93V32C26.74 30.31 32 23.5 32 16c0-8.79-7.21-16-16-16z"/></symbol>
<symbol id="telegram" viewBox="0 0 44 32"><path d="m17.34 21.05-.67 8.86c.96 0 1.38-.39 1.88-.85l4.53-4.04 9.38 6.41c1.72.9 2.93.42 3.4-1.48L42 3.02C42.57.65 41.1-.28 39.43.3L3.22 13.23C.77 14.13.8 15.41 2.82 16l9.25 2.68 21.5-12.55c1-.62 1.92-.28 1.17.35L17.34 21.05z"/></symbol>
<symbol id="facebook" viewBox="0 0 16 32"><path d="M14.14 15.97h-4.03v14.87H4V15.97H1.09v-5.22h2.9V7.37c0-2.42 1.15-6.2 6.17-6.2l4.53.01v5.07h-3.28c-.54 0-1.3.27-1.3 1.43v3.07h4.57l-.54 5.22z"/></symbol></defs></svg>